<svg xmlns="http://www.w3.org/2000/svg" viewBox="0 0 177.761 177.759">
  <defs>
    <style>
      .cls-1 {
        fill: #fff;
      }
    </style>
  </defs>
  <title>logo-upstart</title>
  <g id="Layer_2" data-name="Layer 2">
    <g id="Layer_1-2" data-name="Layer 1">
      <g>
        <path class="cls-1" d="M122.64,120c.084.325.171.649.251.976h0C122.811,120.651,122.724,120.327,122.64,120Z"/>
        <path class="cls-1" d="M119.558,172.294c-.73.28-1.47.54-2.21.79-1.64.55-3.3,1.06-4.98,1.51-1.11.31-2.23.6-3.36.86a89,89,0,0,1-13.99,2.09,87.951,87.951,0,0,1-13.59-.1c-1.6-.13-3.19-.31-4.77-.53l-.22.27a88.247,88.247,0,0,1-18.2-4.57l33.05-39.91,13.13-15.85a76.235,76.235,0,0,1,6.57,18.52l-9.97,12.07-5.51,6.67c1.19-.12,2.37-.28,3.54-.46,1.62-.25,3.21-.56,4.79-.93a64.937,64.937,0,0,0,21.14-9.12,65.9,65.9,0,0,0,18.77-18.87v-.01a65.093,65.093,0,0,0,10.55-40.37,66.681,66.681,0,0,0-1.13-8.44,185.3,185.3,0,0,0,9.74-36.19,88.84,88.84,0,0,1-43.35,132.57Z"/>
        <path class="cls-1" d="M122.918,6.784a180.883,180.883,0,0,0-34.95,16.53c-1.2.01-2.4.06-3.61.15A65.546,65.546,0,0,0,23.338,87c-.05,1.86-.02,3.73.09,5.62l3.73-4.52,11.17-13.51a76.793,76.793,0,0,1,19.65,3.26L44.108,94.6l-32.27,38.96a88.342,88.342,0,0,1-7.74-17.55l.1-.12a88.612,88.612,0,0,1-3.98-20.88,87.556,87.556,0,0,1-.03-11.9v-.07c.1-1.57.24-3.13.43-4.67A86.2,86.2,0,0,1,2.1,69.7a88.863,88.863,0,0,1,120.82-62.92Z"/>
        <path class="cls-1" d="M154.249,14.052a4.2,4.2,0,0,0-1.364-2.551,3.719,3.719,0,0,0-2.752-.906,66.45,66.45,0,0,0-13.771,2.462c-13.244,3.569-31.818,11.314-45.683,25.221l-5.218-1.453a22.446,22.446,0,0,0-18.228,2.854,13.728,13.728,0,0,0-4.648,3.658l-16,19.368q1.191.008,2.368.051c.78.033,1.556.071,2.327.127a78.4,78.4,0,0,1,26.113,6.348q3.16,1.38,6.171,3.018a79.182,79.182,0,0,1,21.774,17.462c.093.1.182.2.271.313.336.388.654.789.986,1.182.654.794,1.3,1.6,1.924,2.41.313.411.631.813.939,1.229l.252.336a78.727,78.727,0,0,1,9.726,17.766q.75,1.92,1.4,3.886c.43,1.313.831,2.645,1.2,3.985.089.332.169.664.257,1s.173.664.257,1l13.085-15.836.014-.019,1.243-1.5.2-.239c.238-.294.467-.588.677-.892a13.841,13.841,0,0,0,1.112-1.882c.159-.327.3-.654.434-.986a0,0,0,0,0,0,0s0,0,0,0A22.454,22.454,0,0,0,139.3,82.3L137.1,77.528c11.393-16.266,15.864-36.1,17.092-49.784A65.154,65.154,0,0,0,154.249,14.052ZM126.257,62.56a12.463,12.463,0,1,1-19.083-16.037,12.246,12.246,0,0,1,2.7-2.392,12.448,12.448,0,0,1,18.476,14.832A12.213,12.213,0,0,1,126.257,62.56Z"/>
        <path class="cls-1" d="M93.418,99.411,41.059,162.776a11.222,11.222,0,0,1-1.514,1.514l0,0A11.138,11.138,0,0,1,23.89,148.586l52.453-63.48c.1.056.2.112.294.171a63.052,63.052,0,0,1,16.7,14.044Z"/>
      </g>
    </g>
  </g>
</svg>
