<svg xmlns="http://www.w3.org/2000/svg" viewBox="0 0 28 28">
  <defs>
    <style>
      .cls-1 {
        fill: #5e5e5e;
      }
    </style>
  </defs>
  <title>matches</title>
  <g id="Layer_2" data-name="Layer 2">
    <g id="Layer_1-2" data-name="Layer 1">
      <path class="cls-1" d="M24,3V14a3,3,0,0,1-3,3H9.58L8.44,19,7.29,21,5.86,23.5A1,1,0,0,1,5,24a1.045,1.045,0,0,1-.25,0A1,1,0,0,1,4,23V17H3a3,3,0,0,1-3-3V3A3,3,0,0,1,3,0H21A3,3,0,0,1,24,3Zm1,1h0V14a4,4,0,0,1-4,4H10.16L8.45,21h3l3.71,6.5A1,1,0,0,0,16,28h.26A1,1,0,0,0,17,27V21h8a3,3,0,0,0,3-3V7A3,3,0,0,0,25,4Z"/>
    </g>
  </g>
</svg>
