<svg xmlns="http://www.w3.org/2000/svg" viewBox="0 0 33.67 28.69">
  <defs>
    <style>
      .cls-1 {
        fill: #5e5e5e;
      }
    </style>
  </defs>
  <title>home</title>
  <g id="Layer_2" data-name="Layer 2">
    <g id="Layer_1-2" data-name="Layer 1">
      <path class="cls-1" d="M18.685,27.926a2.621,2.621,0,0,1-3.7,0L.765,13.706a2.619,2.619,0,0,1,0-3.7l9.24-9.24a2.63,2.63,0,0,1,3.71,0l3.12,3.13,3.12-3.13a2.63,2.63,0,0,1,3.71,0l9.24,9.24a2.63,2.63,0,0,1,0,3.71Zm-6.85-25.3-9.21,9.23,14.21,14.21.86-.86-3.12-3.12,1.85-1.86,3.13,3.12,1-1-3.12-3.12,1.85-1.85,3.12,3.12,1.14-1.13-3.13-3.13,1.86-1.85,3.12,3.12.7-.7-4.12-4.12-.13.14a4.939,4.939,0,0,1-6.986.013l-.014-.013-1.63-1.63a2.63,2.63,0,0,1,0-3.71l1.77-1.77Zm10,0-6.77,6.72,1.63,1.63a2.311,2.311,0,0,0,3.26,0l.14-.14,1.85-1.86.36-.36,6,6,2.76-2.76Z"/>
    </g>
  </g>
</svg>
